Release Title: High School Musical 3: Senior Year 2008

Release Date: 24 October 2008 (USA)

Film Length: 1:56:42

Tagline: High School Graduation.

Genres: Comedy | Drama | Family | Musical | Romance 

Storyline: As seniors in high school, Troy and Gabriella struggle with the idea of being separated from one another as college approaches. Along with the rest of the Wildcats, they stage a spring musical to address their experiences, hopes and fears about their future.

Zac Efron 		... Troy Bolton
Vanessa Hudgens 	... Gabriella Montez
Ashley Tisdale 		... Sharpay Evans
Lucas Grabeel 		... Ryan Evans
Corbin Bleu 		... Chad Danforth
Monique Coleman 	... Taylor McKessie
Olesya Rulin 		... Kelsi Nielsen
Chris Warren Jr. 	... Zeke Baylor
Ryne Sanborn 		... Jason Cross
KayCee Stroh 		... Martha Cox
Bart Johnson 		... Coach Jack Bolton
Alyson Reed 		... Ms. Darbus
Matt Prokop 		... Jimmie Zara
Justin Martin 		... Donny Dion
Jemma McKenzie-Brown 	... Tiara Gold

General
Format : Matroska
File size : 3.06 GiB
Duration : 1h 56mn
Overall bit rate : 3 758 Kbps
Encoded date : UTC 2012-03-01 15:01:16
Writing application : mkvmerge v5.0.0 ('Die Wahre Liebe') built on Sep 25 2011 20:33:49
Writing library : libebml v1.2.2 + libmatroska v1.3.0

Video
ID : 1
Format : AVC
Format/Info : Advanced Video Codec
Format profile : High@L4.1
Format settings, CABAC : Yes
Format settings, ReFrames : 4 frames
Muxing mode : Header stripping
Codec ID : V_MPEG4/ISO/AVC
Duration : 1h 56mn
Bit rate : 3 118 Kbps
Width : 1 280 pixels
Height : 692 pixels
Display aspect ratio : 1.850
Frame rate : 23.976 fps
Color space : YUV
Chroma subsampling : 4:2:0
Bit depth : 8 bits
Scan type : Progressive
Bits/(Pixel*Frame) : 0.147
Stream size : 2.48 GiB (81%)
Writing library : x264 core 120 r2164 da19765

Audio #1
ID : 2
Format : AC-3
Format/Info : Audio Coding 3
Mode extension : CM (complete main)
Muxing mode : Header stripping
Codec ID : A_AC3
Duration : 1h 56mn
Bit rate mode : Constant
Bit rate : 448 Kbps
Channel(s) : 6 channels
Channel positions : Front: L C R, Side: L R, LFE
Sampling rate : 48.0 KHz
Bit depth : 16 bits
Compression mode : Lossy
Stream size : 374 MiB (12%)
Title : Alan_English
Language : English

Audio #2
ID : 3
Format : AC-3
Format/Info : Audio Coding 3
Mode extension : CM (complete main)
Muxing mode : Header stripping
Codec ID : A_AC3
Duration : 1h 56mn
Bit rate mode : Constant
Bit rate : 192 Kbps
Channel(s) : 2 channels
Channel positions : Front: L R
Sampling rate : 48.0 KHz
Bit depth : 16 bits
Compression mode : Lossy
Delay relative to video : 900ms
Stream size : 160 MiB (5%)
Title : Alan_Hindi
Language : Hindi